<svg xmlns="http://www.w3.org/2000/svg" width="24" height="24" viewBox="0 0 24 24" fill="none">
  <path d="M5.7 20.1C5.20294 20.5971 4.39706 20.5971 3.9 20.1C3.40294 19.6029 3.40294 18.7971 3.9 18.3L10.2 12L3.9 5.7C3.40294 5.20294 3.40294 4.39706 3.9 3.9C4.39706 3.40294 5.20294 3.40294 5.7 3.9L12 10.2L18.3 3.9C18.7971 3.40294 19.6029 3.40294 20.1 3.9C20.5971 4.39706 20.5971 5.20294 20.1 5.7L13.8 12L20.1 18.3C20.5971 18.7971 20.5971 19.6029 20.1 20.1C19.6029 20.5971 18.7971 20.5971 18.3 20.1L12 13.8L5.7 20.1Z" fill="#B4BBC7"/>
</svg>