<svg xmlns="http://www.w3.org/2000/svg" width="24" height="24" viewBox="0 0 24 24" fill="none">
  <path d="M12 5.2002C14.0659 5.20021 16.0888 5.78459 17.8115 6.88281C19.5343 7.98125 20.882 9.54613 21.6777 11.3838C21.6817 11.3928 21.6859 11.4019 21.6895 11.4111C21.8372 11.7904 21.8372 12.2096 21.6895 12.5889C21.6859 12.5981 21.6817 12.6072 21.6777 12.6162C20.882 14.4539 19.5343 16.0188 17.8115 17.1172C16.0888 18.2154 14.0659 18.7998 12 18.7998C9.93405 18.7998 7.91118 18.2154 6.18848 17.1172C4.46568 16.0188 3.11796 14.4539 2.32227 12.6162C2.31835 12.6072 2.31413 12.5981 2.31055 12.5889C2.16276 12.2096 2.16276 11.7904 2.31055 11.4111L2.32227 11.3838C3.11796 9.54612 4.46568 7.98125 6.18848 6.88281C7.91118 5.7846 9.93405 5.2002 12 5.2002ZM12 6.7998C10.2341 6.7998 8.51061 7.29957 7.04883 8.23145C5.59481 9.15841 4.46633 10.4697 3.7998 11.9961V12.0029C4.46628 13.5297 5.59455 14.8414 7.04883 15.7686C8.51061 16.7004 10.2341 17.2002 12 17.2002C13.7659 17.2002 15.4894 16.7004 16.9512 15.7686C18.4053 14.8415 19.5327 13.5295 20.1992 12.0029C20.1994 12.0018 20.2002 12.0008 20.2002 12C20.2002 11.9989 20.1996 11.9977 20.1992 11.9961C19.5327 10.4698 18.4051 9.15834 16.9512 8.23145C15.4894 7.29956 13.7659 6.79982 12 6.7998ZM12 8.40039C13.9882 8.40043 15.5996 10.0118 15.5996 12C15.5996 13.9882 13.9882 15.5996 12 15.5996C10.0118 15.5996 8.40039 13.9882 8.40039 12C8.40039 10.0118 10.0118 8.40039 12 8.40039ZM12 10C10.8954 10 10 10.8954 10 12C10 13.1046 10.8954 14 12 14C13.1045 14 14 13.1045 14 12C14 10.8955 13.1045 10 12 10Z" fill="#585F69"/>
</svg>