<svg xmlns="http://www.w3.org/2000/svg" width="21" height="21" viewBox="0 0 21 21" fill="none">
  <path d="M6.76172 14.082H20.2646L13.5234 20.7588H3.50879C1.57115 20.7588 0 19.1876 0 17.25V7.40527L6.76172 0.665039V14.082ZM18.3242 2.71094C17.7246 3.95054 17.3887 5.33838 17.3887 6.80371C17.3887 8.26925 17.7245 9.65771 18.3242 10.8975C17.0687 10.3053 15.6629 9.97364 14.1787 9.97363C11.6724 9.97363 7.99277 13.0394 7.52637 13.3721C7.84395 12.9248 10.9688 10.2725 10.9688 6.80371C10.9687 5.33842 10.6328 3.95051 10.0332 2.71094C11.2887 3.30307 12.6945 3.63476 14.1787 3.63477C15.6629 3.63476 17.0687 3.30309 18.3242 2.71094Z" fill="#6F55FF"/>
</svg>