<svg xmlns="http://www.w3.org/2000/svg" width="38" height="38" viewBox="0 0 38 38" fill="none">
  <path d="M12.8333 5.72461H20.1672C21.2347 5.72461 22.2591 6.14946 23.0139 6.9043L28.0129 11.9033C28.7676 12.6581 29.1916 13.6817 29.1917 14.749V28.25C29.1917 30.4729 27.3892 32.2754 25.1663 32.2754H12.8333C10.6103 32.2754 8.80786 30.4729 8.80786 28.25V9.75C8.80786 7.52705 10.6103 5.72461 12.8333 5.72461Z" fill="white" stroke="#B4BBC7" stroke-width="1.2"/>
  <rect x="5.66675" y="17.4585" width="16.9583" height="10.7917" rx="2.69792" fill="#585F69"/>
  <path d="M10.3145 20.5C11.3683 20.5001 11.9687 21.1452 11.9688 22.0586C11.9688 22.9848 11.3556 23.617 10.2891 23.6172H9.45801V25.125H8.5V20.5H10.3145ZM14.1582 20.5C15.5506 20.5 16.4002 21.3686 16.4004 22.8057C16.4004 24.2558 15.5504 25.125 14.1387 25.125H12.5098V20.5H14.1582ZM20.0781 21.292H17.9893V22.416H19.8799V23.209H17.9893V25.125H17.0312V20.5H20.0781V21.292ZM13.4678 24.3008H14.1006C14.9821 24.3008 15.4424 23.8405 15.4424 22.8057C15.4422 21.7776 14.9822 21.3244 14.1074 21.3242H13.4678V24.3008ZM9.45801 22.8447H10.1357C10.704 22.8446 10.9785 22.5248 10.9785 22.0586C10.9785 21.5988 10.704 21.2863 10.1357 21.2861H9.45801V22.8447Z" fill="white"/>
  <path d="M28.833 14.3748H22.0757C21.2273 14.3748 20.5383 13.6893 20.5341 12.8409L20.5 6" stroke="#B4BBC7" stroke-width="1.2"/>
</svg>