<svg xmlns="http://www.w3.org/2000/svg" width="16" height="16" viewBox="0 0 16 16" fill="none">
  <path d="M8 2.2002C8.44183 2.2002 8.7998 2.55817 8.7998 3V7.19531H13.0049C13.4467 7.19531 13.8047 7.55329 13.8047 7.99512C13.8047 8.43694 13.4467 8.79492 13.0049 8.79492H8.7998V13C8.7998 13.4418 8.44183 13.7998 8 13.7998C7.55817 13.7998 7.2002 13.4418 7.2002 13V8.79492H3.00488C2.56311 8.79486 2.20508 8.4369 2.20508 7.99512C2.20508 7.55333 2.56311 7.19538 3.00488 7.19531H7.2002V3C7.2002 2.55817 7.55817 2.2002 8 2.2002Z" fill="#191F28"/>
</svg>