<svg xmlns="http://www.w3.org/2000/svg" width="16" height="16" viewBox="0 0 16 16" fill="none">
  <path d="M5.07129 10.8113H15.1982L10.1426 15.8191H2.63086C1.17784 15.8188 0 14.6403 0 13.1873V5.80347L5.07129 0.748779V10.8113ZM13.7432 2.28296C13.2935 3.21259 13.0411 4.25338 13.041 5.35229C13.041 6.45139 13.2934 7.49284 13.7432 8.42261C12.8015 7.9785 11.7469 7.73022 10.6338 7.73022C8.75396 7.7304 5.99402 10.0298 5.64453 10.2791C5.88224 9.94392 8.22656 7.95418 8.22656 5.35229C8.22649 4.25334 7.97414 3.21262 7.52441 2.28296C8.46609 2.72715 9.52059 2.97531 10.6338 2.97534C11.7469 2.97534 12.8015 2.72707 13.7432 2.28296Z" fill="#6F55FF"/>
</svg>