<svg xmlns="http://www.w3.org/2000/svg" width="24" height="24" viewBox="0 0 24 24" fill="none">
  <path d="M12 3C16.9706 3 21 7.02944 21 12C21 16.9706 16.9706 21 12 21C7.02944 21 3 16.9706 3 12C3 7.02944 7.02944 3 12 3Z" fill="#FF4B6B"/>
  <path d="M12 15.2158C12.5681 15.2158 13.0293 15.6761 13.0293 16.2441C13.0293 16.8122 12.5681 17.2725 12 17.2725C11.4321 17.2723 10.9717 16.8121 10.9717 16.2441C10.9717 15.6762 11.4321 15.216 12 15.2158ZM12 6.59961C12.4971 6.59961 12.9004 7.00294 12.9004 7.5V12.6426C12.9004 13.1396 12.4971 13.543 12 13.543C11.5029 13.543 11.0996 13.1396 11.0996 12.6426V7.5C11.0996 7.00294 11.5029 6.59961 12 6.59961Z" fill="white"/>
</svg>