<svg width="24" height="24" viewBox="0 0 24 24" fill="none" xmlns="http://www.w3.org/2000/svg">
<path d="M13 4.7002C15.0987 4.7002 16.7998 6.40132 16.7998 8.5C16.7998 9.42847 16.4661 10.2785 15.9131 10.9385C17.5936 11.523 18.7998 13.1203 18.7998 15C18.7998 17.3748 16.8748 19.2998 14.5 19.2998H8C7.55817 19.2998 7.2002 18.9418 7.2002 18.5V5.5C7.2002 5.05817 7.55817 4.7002 8 4.7002H13ZM8.7998 17.7002H14.5C15.9912 17.7002 17.2002 16.4912 17.2002 15C17.2002 13.5088 15.9912 12.2998 14.5 12.2998H8.7998V17.7002ZM8.7998 10.7002H13C14.215 10.7002 15.2002 9.71503 15.2002 8.5C15.2002 7.28497 14.215 6.2998 13 6.2998H8.7998V10.7002Z" fill="#585F69"/>
</svg>
