<svg xmlns="http://www.w3.org/2000/svg" width="24" height="24" viewBox="0 0 24 24" fill="none">
  <path d="M16.4996 12.8001C17.2608 12.8001 17.9591 13.0672 18.5084 13.511C18.5516 13.2224 18.7987 13.0006 19.0993 13.0003C19.4305 13.0003 19.6996 13.2687 19.6998 13.5999V18.4007C19.6995 18.7317 19.4304 19.0003 19.0993 19.0003C18.7984 18.9999 18.5513 18.7776 18.5084 18.4886C17.9591 18.9325 17.2609 19.2005 16.4996 19.2005C14.7326 19.2003 13.2996 17.7673 13.2995 16.0003C13.2995 14.2331 14.7325 12.8003 16.4996 12.8001ZM8.3307 9.40067C8.563 9.3972 8.77642 9.52791 8.87856 9.7366L13.0387 18.2366C13.1842 18.5342 13.0609 18.8937 12.7633 19.0393C12.4658 19.1846 12.1062 19.0613 11.9606 18.7639L11.1461 17.0999H5.79066L5.04652 18.7473C4.90997 19.0491 4.55444 19.1835 4.25258 19.0471C3.95085 18.9107 3.81665 18.555 3.95277 18.2532L7.79262 9.7532L7.83363 9.67703C7.94096 9.50894 8.12754 9.40391 8.3307 9.40067ZM16.4996 14.0003C15.3952 14.0005 14.4996 14.8958 14.4996 16.0003C14.4998 17.1046 15.3953 18.0001 16.4996 18.0003C17.6041 18.0003 18.4995 17.1047 18.4996 16.0003C18.4996 14.8957 17.6042 14.0003 16.4996 14.0003ZM6.33266 15.9007H10.5592L8.36098 11.4095L6.33266 15.9007ZM16.2067 4.57645C16.441 4.34213 16.821 4.34213 17.0553 4.57645C17.2894 4.81073 17.2894 5.18984 17.0553 5.4241L12.5553 9.9241C12.321 10.1581 11.9409 10.1583 11.7067 9.9241L9.57582 7.79324C9.34161 7.55903 9.34182 7.17895 9.57582 6.94461C9.8101 6.71047 10.1892 6.71047 10.4235 6.94461L12.1305 8.65164L16.2067 4.57645Z" fill="#585F69"/>
</svg>