<svg xmlns="http://www.w3.org/2000/svg" width="24" height="24" viewBox="0 0 24 24" fill="none">
  <path d="M16.5002 12.8C17.2614 12.8001 17.9597 13.0671 18.509 13.511C18.5523 13.2222 18.7991 13.0004 19.0999 13.0002C19.431 13.0004 19.7002 13.2687 19.7004 13.5999V18.4006C19.7001 18.7317 19.4309 19.0001 19.0999 19.0002C18.7989 19.0001 18.552 18.7776 18.509 18.4885C17.9597 18.9326 17.2616 19.2004 16.5002 19.2004C14.733 19.2004 13.3002 17.7675 13.3 16.0002C13.3 14.2329 14.7329 12.8 16.5002 12.8ZM8.3313 9.40063C8.56351 9.39725 8.77705 9.52795 8.87915 9.73657L13.0393 18.2366C13.1847 18.5341 13.0614 18.8937 12.7639 19.0393C12.4664 19.1848 12.1069 19.0613 11.9612 18.7639L11.1467 17.0999H5.79126L5.04712 18.7473C4.9107 19.0491 4.55507 19.1833 4.25317 19.0471C3.95123 18.9107 3.81702 18.5551 3.95337 18.2532L7.79321 9.75317L7.83423 9.677C7.94162 9.50882 8.128 9.40377 8.3313 9.40063ZM16.5002 14.0002C15.3957 14.0002 14.5002 14.8957 14.5002 16.0002C14.5004 17.1047 15.3957 18.0002 16.5002 18.0002C17.6046 18.0001 18.5001 17.1046 18.5002 16.0002C18.5002 14.8957 17.6047 14.0004 16.5002 14.0002ZM6.33325 15.9006H10.5598L8.36157 11.4094L6.33325 15.9006ZM16.2073 4.57642C16.4416 4.34211 16.8216 4.3421 17.0559 4.57642C17.2897 4.81072 17.2899 5.18989 17.0559 5.42407L12.5559 9.92407C12.3217 10.1583 11.9416 10.1581 11.7073 9.92407L9.57642 7.79321C9.3421 7.5589 9.3421 7.17889 9.57642 6.94458C9.8107 6.71044 10.1898 6.71044 10.4241 6.94458L12.1311 8.65161L16.2073 4.57642Z" fill="#6F55FF"/>
</svg>