<svg xmlns="http://www.w3.org/2000/svg" width="24" height="24" viewBox="0 0 24 24" fill="none">
  <path d="M5 20H19" stroke="#FFE658" stroke-width="1.6" stroke-linecap="round" stroke-linejoin="round"/>
  <path d="M12.4634 3.43475C12.7758 3.12233 13.2828 3.12233 13.5952 3.43475C13.9073 3.74715 13.9074 4.25329 13.5952 4.56561L9.91748 8.24237L15.8579 14.1828L19.5347 10.5051C19.8469 10.1929 20.3531 10.1931 20.6655 10.5051C20.9779 10.8175 20.9779 11.3245 20.6655 11.6369L16.4233 15.8791C16.1109 16.1915 15.6049 16.1915 15.2925 15.8791L15.1323 15.7189C15.0988 15.7756 15.059 15.8304 15.0103 15.8791L12.8892 18.0002C12.5768 18.3124 12.0707 18.3124 11.7583 18.0002L11.1431 17.3849L8.7915 19.7385C8.54706 19.9829 8.1732 20.0419 7.86475 19.8859L3.64014 17.7482C3.41134 17.6324 3.25192 17.4135 3.21143 17.1603C3.17096 16.9071 3.25372 16.6493 3.43506 16.468L6.83057 13.0724L6.10107 12.343C5.78888 12.0306 5.78884 11.5245 6.10107 11.2121L8.22217 9.091C8.2708 9.04238 8.32479 9.00145 8.38135 8.96796L8.22119 8.8078C7.90895 8.49537 7.90883 7.9893 8.22119 7.67694L12.4634 3.43475ZM5.34717 16.8185L8.06982 18.1965L10.0122 16.2541L7.96143 14.2033L5.34717 16.8185ZM9.47607 10.0627C9.4426 10.1192 9.40261 10.1732 9.354 10.2219L7.79834 11.7775L12.3237 16.3029L13.8794 14.7473C13.9279 14.6987 13.9812 14.6576 14.0376 14.6242L9.47607 10.0627Z" fill="#6F55FF"/>
</svg>