<svg xmlns="http://www.w3.org/2000/svg" width="24" height="24" viewBox="0 0 24 24" fill="none">
  <path d="M19 4.2002C19.4418 4.2002 19.7998 4.55817 19.7998 5V19C19.7998 19.4418 19.4418 19.7998 19 19.7998H5C4.55817 19.7998 4.2002 19.4418 4.2002 19V5C4.2002 4.55817 4.55817 4.2002 5 4.2002H19ZM7.03516 18.2002H18.2002V13.8633L15.0059 11.0684L7.03516 18.2002ZM5.7998 17.1572L14.4668 9.40332L14.5859 9.31543C14.8788 9.13802 15.2602 9.16493 15.5264 9.39746L18.2002 11.7363V5.7998H5.7998V17.1572ZM9 7.5C9.82843 7.5 10.5 8.17157 10.5 9C10.5 9.82843 9.82843 10.5 9 10.5C8.17157 10.5 7.5 9.82843 7.5 9C7.5 8.17157 8.17157 7.5 9 7.5Z" fill="#585F69"/>
</svg>