<svg xmlns="http://www.w3.org/2000/svg" width="24" height="24" viewBox="0 0 24 24" fill="none">
  <path d="M19 4.2002C19.4418 4.2002 19.7998 4.55817 19.7998 5V19C19.7998 19.4418 19.4418 19.7998 19 19.7998H5C4.55817 19.7998 4.2002 19.4418 4.2002 19V5C4.2002 4.55817 4.55817 4.2002 5 4.2002H19ZM5.7998 15.2998V18.2002H11.2266C11.21 18.1361 11.2002 18.0692 11.2002 18V15.2998H5.7998ZM12.7998 15.2998V18C12.7998 18.0692 12.79 18.1361 12.7734 18.2002H18.2002V15.2998H12.7998ZM5.7998 13.7002H11.2002V10.2998H5.7998V13.7002ZM12.7998 13.7002H18.2002V10.2998H12.7998V13.7002ZM5.7998 8.7002H11.2002V6C11.2002 5.93077 11.21 5.86387 11.2266 5.7998H5.7998V8.7002ZM12.7734 5.7998C12.79 5.86387 12.7998 5.93077 12.7998 6V8.7002H18.2002V5.7998H12.7734Z" fill="#585F69"/>
</svg>